#!OML:ASF H:\LiuWeirdWalks\Patient Classification 1\Patient 1\Session 1\male.ASF
:FULLY-SPECIFIED
:DEGREES
445
root 1.56988 18.1986 -25.1137 4.64901 1.33855 -6.85103
lowerback 8.46801 0.82484 -3.35806
upperback 4.86952 0.851281 -1.1034
thorax 0.264737 0.374028 0.678127
lowerneck -38.2604 -0.269699 6.9123
upperneck 22.5141 -3.47212 -2.39176
head 13.6536 -1.22345 -2.82238
rclavicle -2.22639e-014 -6.36111e-015
rhumerus -14.5423 -36.8468 -5.49303
rradius 32.3879
rwrist 2.24811
rhand -20.1008 -6.16244
rfingers 7.12502
rthumb 6.24246 -36.0505
lclavicle -2.22639e-014 -6.36111e-015
lhumerus -23.8637 33.3467 26.3024
lradius 31.5949
lwrist 6.0103
lhand -17.7082 -4.17554
lfingers 7.12502
lthumb 8.55198 25.6313
rfemur -1.14354 -7.55223 17.9645
rtibia 40.0787
rfoot 8.54999 -16.3195
rtoes 0.0312557
lfemur -15.3232 0.710746 -13.0154
ltibia 28.1049
lfoot -8.28979 18.6824
ltoes -6.28194
446
root 1.59723 18.2006 -25.0726 4.63902 1.45995 -6.95487
lowerback 8.48237 0.798397 -3.36104
upperback 4.83707 0.815574 -0.963699
thorax 0.22245 0.355344 0.826384
lowerneck -38.114 -0.223391 6.90117
upperneck 22.4443 -3.34486 -2.52418
head 13.6033 -1.19438 -2.84403
rclavicle -1.59028e-014 7.95139e-015
rhumerus -14.4596 -36.7596 -5.4179
rradius 32.3722
rwrist 2.23407
rhand -20.1944 -6.2622
rfingers 7.12502
rthumb 6.15211 -36.1529
lclavicle -1.59028e-014 7.95139e-015
lhumerus -24.0497 33.3393 26.5293
lradius 31.6278
lwrist 5.96921
lhand -17.6788 -4.1674
lfingers 7.12502
lthumb 8.5803 25.6383
rfemur -1.35858 -7.91539 17.8636
rtibia 40.5598
rfoot 8.61492 -15.8851
rtoes 0.521703
lfemur -15.15 0.619848 -12.9843
ltibia 28.0557
lfoot -8.44272 18.6592
ltoes -6.37832
447
root 1.62407 18.2018 -25.0319 4.63034 1.60852 -7.03755
lowerback 8.49575 0.792487 -3.34792
upperback 4.83858 0.808984 -0.869178
thorax 0.215707 0.351295 0.916883
lowerneck -38.0792 -0.280009 6.85351
upperneck 22.407 -3.38692 -2.54321
head 13.5792 -1.22152 -2.85148
rclavicle -8.34896e-015 9.54166e-015
rhumerus -14.5392 -36.7802 -5.29877
rradius 32.3713
rwrist 2.20622
rhand -20.2806 -6.30646
rfingers 7.12502
rthumb 6.0689 -36.1995
lclavicle -8.34896e-015 9.54166e-015
lhumerus -23.9994 33.3305 26.7833
lradius 31.6509
lwrist 5.90033
lhand -17.6173 -4.18606
lfingers 7.12502
lthumb 8.63967 25.6172
rfemur -1.56665 -8.28775 17.7511
rtibia 41.0323
rfoot 8.5526 -15.5367
rtoes 0.806415
lfemur -14.9935 0.533915 -12.972
ltibia 28.0178
lfoot -8.61276 18.5937
ltoes -6.47167
448
root 1.65027 18.2023 -24.992 4.62421 1.79643 -7.09844
lowerback 8.49998 0.790583 -3.32838
upperback 4.83633 0.808371 -0.799959
thorax 0.21029 0.350721 0.977294
lowerneck -37.9857 -0.38737 6.79898
upperneck 22.3079 -3.506 -2.51037
head 13.5162 -1.27653 -2.84977
rclavicle -1.59028e-015 0
rhumerus -14.7212 -36.8281 -5.14826
rradius 32.3761
rwrist 2.18465
rhand -20.3472 -6.32116
rfingers 7.12502
rthumb 6.00467 -36.2161
lclavicle -1.59028e-015 0
lhumerus -23.8218 33.2551 27.0229
lradius 31.6752
lwrist 5.83893
lhand -17.5654 -4.20206
lfingers 7.12502
lthumb 8.68978 25.5991
rfemur -1.76921 -8.67883 17.6318
rtibia 41.4948
rfoot 8.32517 -15.3543
rtoes 0.868658
lfemur -14.8608 0.450134 -12.9778
ltibia 27.9884
lfoot -8.79394 18.4846
ltoes -6.57309
449
root 1.67596 18.2018 -24.9525 4.61569 2.00818 -7.13521
lowerback 8.48866 0.784819 -3.31453
upperback 4.84888 0.803329 -0.735094
thorax 0.228966 0.347414 1.03704
lowerneck -37.9446 -0.509227 6.73297
upperneck 22.2622 -3.64778 -2.46694
head 13.484 -1.33864 -2.84903
rclavicle -2.34566e-014 -6.36111e-015
rhumerus -14.9169 -36.9154 -4.99592
rradius 32.3773
rwrist 2.16386
rhand -20.3964 -6.3089
rfingers 7.12502
rthumb 5.95709 -36.2052
lclavicle -2.34566e-014 -6.36111e-015
lhumerus -23.5814 33.1574 27.2442
lradius 31.7239
lwrist 5.81085
lhand -17.534 -4.22087
lfingers 7.12502
lthumb 8.72006 25.579
rfemur -1.96403 -9.0825 17.5004
rtibia 41.9426
rfoot 7.91709 -15.3668
rtoes 0.793535
lfemur -14.7386 0.381995 -13.0085
ltibia 27.9636
lfoot -8.98075 18.3417
ltoes -6.6899
450
root 1.70138 18.2005 -24.9133 4.59523 2.24169 -7.13857
lowerback 8.4753 0.776489 -3.30801
upperback 4.87271 0.794701 -0.681308
thorax 0.260743 0.342029 1.08985
lowerneck -37.9125 -0.656593 6.63273
upperneck 22.2097 -3.81968 -2.38226
head 13.4508 -1.41049 -2.83224
rclavicle -9.54166e-015 -1.11319e-014
rhumerus -15.1158 -37.0702 -4.85124
rradius 32.3577
rwrist 2.17
rhand -20.4343 -6.2885
rfingers 7.12502
rthumb 5.92052 -36.1858
lclavicle -9.54166e-015 -1.11319e-014
lhumerus -23.2732 33.0556 27.4412
lradius 31.7884
lwrist 5.79929
lhand -17.5183 -4.23467
lfingers 7.12502
lthumb 8.73516 25.5646
rfemur -2.13714 -9.49983 17.3429
rtibia 42.368
rfoot 7.3006 -15.5816
rtoes 0.595143
lfemur -14.6107 0.312974 -13.0765
ltibia 27.9379
lfoot -9.16415 18.1858
ltoes -6.80117
451
root 1.72676 18.1984 -24.8739 4.57118 2.48785 -7.11704
lowerback 8.44678 0.768411 -3.29981
upperback 4.91238 0.787503 -0.638918
thorax 0.317403 0.337023 1.13009
lowerneck -37.9455 -0.809295 6.52938
upperneck 22.2332 -4.01087 -2.27729
head 13.4605 -1.48464 -2.81414
rclavicle 2.50469e-014 -9.54166e-015
rhumerus -15.3272 -37.2782 -4.70754
rradius 32.3235
rwrist 2.17813
rhand -20.4441 -6.25916
rfingers 7.12502
rthumb 5.91105 -36.1567
lclavicle 2.50469e-014 -9.54166e-015
lhumerus -22.8914 32.9619 27.614
lradius 31.8683
lwrist 5.80062
lhand -17.5362 -4.24298
lfingers 7.12502
lthumb 8.71791 25.557
rfemur -2.29847 -9.92339 17.1674
rtibia 42.7615
rfoot 6.47684 -15.9854
rtoes 0.384551
lfemur -14.4764 0.240861 -13.1742
ltibia 27.9052
lfoot -9.34647 18.0316
ltoes -6.87419
452
root 1.75231 18.1958 -24.8346 4.54115 2.73869 -7.08211
lowerback 8.41904 0.738078 -3.30041
upperback 4.93644 0.749999 -0.553776
thorax 0.358189 0.316527 1.22169
lowerneck -37.9623 -0.884581 6.42558
upperneck 22.2843 -4.0648 -2.26365
head 13.4842 -1.51339 -2.8054
rclavicle -2.38542e-015 -6.36111e-015
rhumerus -15.3876 -37.4557 -4.60526
rradius 32.2666
rwrist 2.1772
rhand -20.4455 -6.26571
rfingers 7.12502
rthumb 5.90968 -36.1633
lclavicle -2.38542e-015 -6.36111e-015
lhumerus -22.6255 32.8924 27.7251
lradius 31.982
lwrist 5.79605
lhand -17.5783 -4.25613
lfingers 7.12502
lthumb 8.67726 25.5455
rfemur -2.44883 -10.3369 16.9852
rtibia 43.1138
rfoot 5.5048 -16.5281
rtoes 0.290423
lfemur -14.3313 0.16938 -13.2894
ltibia 27.8619
lfoot -9.51703 17.8834
ltoes -6.91885
453
root 1.77824 18.1931 -24.7953 4.50912 2.99827 -7.01273
lowerback 8.38069 0.706157 -3.31053
upperback 4.96583 0.710239 -0.474004
thorax 0.410574 0.294535 1.31336
lowerneck -38.0076 -0.9587 6.32671
upperneck 22.3727 -4.11836 -2.2645
head 13.528 -1.54238 -2.80495
rclavicle 2.38542e-015 -4.77083e-015
rhumerus -15.445 -37.6062 -4.50466
rradius 32.2072
rwrist 2.14857
rhand -20.4286 -6.27583
rfingers 7.12502
rthumb 5.92602 -36.173
lclavicle 2.38542e-015 -4.77083e-015
lhumerus -22.3251 32.8428 27.8056
lradius 32.1077
lwrist 5.78561
lhand -17.6601 -4.25923
lfingers 7.12502
lthumb 8.59837 25.5457
rfemur -2.59334 -10.7418 16.7706
rtibia 43.4163
rfoot 4.45838 -17.1259
rtoes 0.263073
lfemur -14.1739 0.075036 -13.446
ltibia 27.8084
lfoot -9.68619 17.7523
ltoes -6.9198
454
root 1.80421 18.1902 -24.7568 4.47629 3.26029 -6.92579
lowerback 8.35399 0.674457 -3.32344
upperback 4.98335 0.669766 -0.392936
thorax 0.444392 0.272481 1.40776
lowerneck -38.0267 -1.02577 6.22775
upperneck 22.4497 -4.15773 -2.2715
head 13.5633 -1.56684 -2.80328
rclavicle -3.57812e-015 1.43125e-014
rhumerus -15.5059 -37.7003 -4.40092
rradius 32.1503
rwrist 2.10519
rhand -20.4065 -6.31133
rfingers 7.12502
rthumb 5.94734 -36.2079
lclavicle -3.57812e-015 1.43125e-014
lhumerus -22.0196 32.7754 27.8427
lradius 32.2521
lwrist 5.77729
lhand -17.7533 -4.265
lfingers 7.12502
lthumb 8.50841 25.5436
rfemur -2.74344 -11.1168 16.5485
rtibia 43.6654
rfoot 3.45692 -17.7132
rtoes 0.230726
lfemur -14.0118 -0.0231221 -13.6224
ltibia 27.7459
lfoot -9.83313 17.6236
ltoes -6.95026
